<?xml version="1.0" encoding="utf-8"?>
<svg width="373px" height="183px" viewBox="0 0 373 183" version="1.1" xmlns:xlink="http://www.w3.org/1999/xlink" xmlns="http://www.w3.org/2000/svg">
  <desc>Created with Lunacy</desc>
  <defs>
    <filter filterUnits="userSpaceOnUse" color-interpolation-filters="sRGB" id="filter_1">
      <feFlood flood-opacity="0" result="BackgroundImageFix" />
      <feColorMatrix in="SourceAlpha" type="matrix" values="0 0 0 0 0 0 0 0 0 0 0 0 0 0 0 0 0 0 127 0" />
      <feOffset dx="0" dy="0" />
      <feGaussianBlur stdDeviation="5" />
      <feColorMatrix type="matrix" values="0 0 0 0 0 0 0 0 0 0 0 0 0 0 0 0 0 0 0.5686275 0" />
      <feBlend mode="normal" in2="BackgroundImageFix" result="effect0_dropShadow" />
      <feBlend mode="normal" in="SourceGraphic" in2="effect0_dropShadow" result="shape" />
    </filter>
  </defs>
  <g id="Group-2">
    <g id="Circle-2" transform="translate(187.5 0)">
      <g filter="url(#filter_1)">
        <path d="M92.7031 1.8752C142.849 1.8752 183.5 41.9945 183.5 91.4844C183.5 140.974 142.849 181.094 92.7031 181.094C42.5574 181.094 1.90624 140.974 1.90624 91.4844C1.90624 41.9945 42.5574 1.8752 92.7031 1.8752Z" id="Ellipse-1-copy" fill="#F0F0F0" stroke="none" />
      </g>
      <g id="for-quality-patio-doors**" transform="translate(37 134.6228)">
        <g id="for-quality" fill="#00345D">
          <path d="M37.0604 3.20623Q37.3466 3.20623 37.5719 3.33294L37.5719 2.63842Q37.3654 2.55395 37.0134 2.55395Q36.3611 2.55395 35.9247 2.99272Q35.4883 3.43148 35.4883 4.187L35.4883 4.96599L34.6671 4.96599L34.6671 5.62296L35.4883 5.62296L35.4883 9.77129L36.2532 9.77129L36.2532 5.62296L37.3795 5.62296L37.3795 4.96599L36.2532 4.96599L36.2532 4.22455Q36.2532 3.20623 37.0604 3.20623ZM66.5679 9.77129L65.7983 9.77129L65.7983 2.65719L66.5679 2.65719L66.5679 9.77129ZM68.1681 3.60511Q68.3136 3.74589 68.5201 3.74589Q68.7312 3.74589 68.8791 3.60042Q69.0269 3.45495 69.0269 3.24847Q69.0269 3.03261 68.8791 2.88948Q68.7312 2.74635 68.5201 2.74635Q68.3136 2.74635 68.1681 2.88948Q68.0226 3.03261 68.0226 3.24847Q68.0226 3.46433 68.1681 3.60511ZM72.6825 9.72436Q72.4103 9.87453 71.9645 9.87453Q70.7022 9.87453 70.7022 8.46673L70.7022 5.62296L69.8762 5.62296L69.8762 4.96599L70.7022 4.96599L70.7022 3.79282L71.4718 3.54411L71.4718 4.96599L72.6825 4.96599L72.6825 5.62296L71.4718 5.62296L71.4718 8.33064Q71.4718 8.81398 71.636 9.02046Q71.8002 9.22694 72.1804 9.22694Q72.4713 9.22694 72.6825 9.06739L72.6825 9.72436ZM38.5127 9.21052Q39.1486 9.88391 40.2138 9.88391Q41.3072 9.88391 41.9572 9.19174Q42.6071 8.49957 42.6071 7.34987Q42.6071 6.1767 42.0041 5.51503Q41.4011 4.85336 40.3265 4.85336Q39.2002 4.85336 38.5386 5.5338Q37.8769 6.21424 37.8769 7.42495Q37.8769 8.53712 38.5127 9.21052ZM53.1422 11.9815L53.9118 11.9815L53.9118 4.96599L53.1422 4.96599L53.1422 5.63235L53.1234 5.63235Q52.6823 4.85336 51.6968 4.85336Q50.6832 4.85336 50.0825 5.569Q49.4819 6.28463 49.4819 7.48126Q49.4819 8.59343 50.0286 9.23867Q50.5753 9.88391 51.481 9.88391Q52.6213 9.88391 53.1234 8.94538L53.1422 8.94538L53.1422 11.9815ZM63.5787 9.77129L64.3483 9.77129L64.3483 6.64597Q64.3483 4.85336 62.6542 4.85336Q61.7298 4.85336 61.0212 5.30386L61.0212 6.09223Q61.7204 5.50095 62.5885 5.50095Q63.5787 5.50095 63.5787 6.72574L62.138 6.92753Q60.5519 7.14808 60.5519 8.49488Q60.5519 9.1237 60.9578 9.50381Q61.3637 9.88391 62.0817 9.88391Q63.0578 9.88391 63.5599 9.02046L63.5787 9.02046L63.5787 9.77129ZM46.3425 5.74497Q46.1407 5.59012 45.7606 5.59011Q45.2678 5.59012 44.937 6.05469Q44.6062 6.51926 44.6062 7.32171L44.6062 9.77129L43.8366 9.77129L43.8366 4.96599L44.6062 4.96599L44.6062 5.95614L44.625 5.95614Q44.7892 5.44934 45.1271 5.16543Q45.4649 4.88152 45.8826 4.88152Q46.1829 4.88152 46.3425 4.94722L46.3425 5.74497ZM59.3553 9.77129L58.5857 9.77129L58.5857 9.01108L58.5669 9.01108Q58.0882 9.88391 57.084 9.88391Q55.3665 9.88391 55.3665 7.83791L55.3665 4.96599L56.1314 4.96599L56.1314 7.7159Q56.1314 9.23632 57.2952 9.23632Q57.8583 9.23632 58.222 8.82102Q58.5857 8.40572 58.5857 7.73467L58.5857 4.96599L59.3553 4.96599L59.3553 9.77129ZM68.1259 9.77129L68.8955 9.77129L68.8955 4.96599L68.1259 4.96599L68.1259 9.77129ZM75.3244 10.5409L77.5347 4.96599L76.7369 4.96599L75.3714 8.6732Q75.301 8.91722 75.2775 9.02985L75.2494 9.02985Q75.1743 8.73421 75.1508 8.66382L73.8509 4.96599L72.9969 4.96599L74.874 9.7619L74.4892 10.6723Q74.1982 11.3668 73.6163 11.3668Q73.4098 11.3668 73.1611 11.2823L73.1611 11.9722Q73.3629 12.0332 73.6632 12.0332Q74.7332 12.0332 75.3244 10.5409ZM39.097 6.00542Q39.5287 5.50095 40.2701 5.50095Q41.0163 5.50095 41.4175 5.98899Q41.8187 6.47703 41.8187 7.37802Q41.8187 8.26963 41.4175 8.75298Q41.0163 9.23632 40.2701 9.23632Q39.5381 9.23632 39.1017 8.74359Q38.6653 8.25086 38.6653 7.3968Q38.6653 6.50988 39.097 6.00542ZM53.1422 6.90876L53.1422 7.60797Q53.1422 8.31187 52.7409 8.7741Q52.3397 9.23632 51.664 9.23632Q51.0492 9.23632 50.6597 8.76471Q50.2702 8.2931 50.2702 7.46249Q50.2702 6.52865 50.6738 6.0148Q51.0774 5.50095 51.7719 5.50095Q52.3679 5.50095 52.755 5.90922Q53.1422 6.31748 53.1422 6.90876ZM62.4196 7.50003L63.5787 7.34048L63.5787 7.81914Q63.5787 8.43388 63.2056 8.8351Q62.8325 9.23632 62.26 9.23632Q61.8424 9.23632 61.5913 9.01342Q61.3403 8.79052 61.3403 8.43857Q61.3403 7.95522 61.6124 7.76517Q61.8846 7.57512 62.4196 7.50003Z" />
        </g>
        <g id="patio-doors**" fill="#00345D">
          <path d="M56.1267 23.5854L56.8963 23.5854L56.8963 16.4713L56.1267 16.4713L56.1267 19.4465L56.1079 19.4465Q55.6574 18.6675 54.6673 18.6675Q53.6677 18.6675 53.0671 19.3855Q52.4664 20.1035 52.4664 21.2954Q52.4664 22.4076 53.0084 23.0528Q53.5504 23.6981 54.4561 23.6981Q55.573 23.6981 56.1079 22.7689L56.1267 22.7689L56.1267 23.5854ZM42.2458 17.4193Q42.3912 17.56 42.5977 17.56Q42.8089 17.56 42.9567 17.4146Q43.1045 17.2691 43.1045 17.0626Q43.1045 16.8467 42.9567 16.7036Q42.8089 16.5605 42.5977 16.5605Q42.3912 16.5605 42.2458 16.7036Q42.1003 16.8467 42.1003 17.0626Q42.1003 17.2785 42.2458 17.4193ZM80.0171 18.4047L78.7313 18.6675L79.6229 19.8078L79.1067 20.1645L78.3747 18.9209L77.6332 20.1645L77.117 19.8078L78.0087 18.6675L76.7135 18.4047L76.9246 17.8181L78.1541 18.2827L78.0462 16.8561L78.6938 16.8561L78.5858 18.2827L79.82 17.8181L80.0171 18.4047ZM82.7389 18.6675L84.0247 18.4047L83.8276 17.8181L82.5934 18.2827L82.7013 16.8561L82.0537 16.8561L82.1617 18.2827L80.9322 17.8181L80.721 18.4047L82.0162 18.6675L81.1246 19.8078L81.6408 20.1645L82.3822 18.9209L83.1143 20.1645L83.6305 19.8078L82.7389 18.6675ZM41.1758 23.5385Q40.9037 23.6887 40.4579 23.6887Q39.1955 23.6887 39.1955 22.2809L39.1955 19.4371L38.3696 19.4371L38.3696 18.7801L39.1955 18.7801L39.1955 17.607L39.9651 17.3582L39.9651 18.7801L41.1758 18.7801L41.1758 19.4371L39.9651 19.4371L39.9651 22.1448Q39.9651 22.6281 40.1294 22.8346Q40.2936 23.0411 40.6737 23.0411Q40.9647 23.0411 41.1758 22.8815L41.1758 23.5385ZM29.1767 22.8909L29.1954 22.8909Q29.7022 23.6981 30.6361 23.6981Q31.6544 23.6981 32.241 22.973Q32.8276 22.248 32.8276 21.042Q32.8276 19.958 32.3067 19.3127Q31.7858 18.6675 30.8566 18.6675Q29.7632 18.6675 29.1954 19.6248L29.1767 19.6248L29.1767 18.7801L28.4071 18.7801L28.4071 25.7957L29.1767 25.7957L29.1767 22.8909ZM36.7272 23.5854L37.4968 23.5854L37.4968 20.4601Q37.4968 18.6675 35.8027 18.6675Q34.8783 18.6675 34.1697 19.118L34.1697 19.9064Q34.8689 19.3151 35.737 19.3151Q36.7272 19.3151 36.7272 20.5399L35.2865 20.7417Q33.7004 20.9622 33.7004 22.309Q33.7004 22.9378 34.1063 23.3179Q34.5122 23.6981 35.2302 23.6981Q36.2063 23.6981 36.7084 22.8346L36.7272 22.8346L36.7272 23.5854ZM46.5396 23.6981Q45.4743 23.6981 44.8385 23.0247Q44.2026 22.3513 44.2026 21.2391Q44.2026 20.0284 44.8643 19.3479Q45.5259 18.6675 46.6522 18.6675Q47.7268 18.6675 48.3298 19.3292Q48.9328 19.9908 48.9328 21.164Q48.9328 22.3137 48.2829 23.0059Q47.633 23.6981 46.5396 23.6981ZM60.4627 23.6981Q59.3975 23.6981 58.7616 23.0247Q58.1258 22.3513 58.1258 21.2391Q58.1258 20.0284 58.7874 19.3479Q59.4491 18.6675 60.5754 18.6675Q61.65 18.6675 62.253 19.3292Q62.856 19.9908 62.856 21.164Q62.856 22.3137 62.2061 23.0059Q61.5561 23.6981 60.4627 23.6981ZM64.3929 23.0247Q65.0287 23.6981 66.0939 23.6981Q67.1873 23.6981 67.8373 23.0059Q68.4872 22.3137 68.4872 21.164Q68.4872 19.9908 67.8842 19.3292Q67.2812 18.6675 66.2066 18.6675Q65.0803 18.6675 64.4187 19.3479Q63.757 20.0284 63.757 21.2391Q63.757 22.3513 64.3929 23.0247ZM72.7669 22.5859L72.7669 23.4118Q73.3113 23.6981 74.0527 23.6981Q74.4281 23.6981 74.7707 23.6136Q75.1133 23.5291 75.3761 23.3555Q75.6388 23.1819 75.7961 22.9191Q75.9533 22.6563 75.9533 22.2996Q75.9533 22.0087 75.8571 21.7975Q75.7609 21.5863 75.5825 21.4245Q75.4042 21.2626 75.1508 21.1335Q74.8974 21.0045 74.5783 20.8824Q74.339 20.7886 74.1513 20.7088Q73.9636 20.629 73.8322 20.5305Q73.7008 20.432 73.6327 20.3052Q73.5647 20.1785 73.5647 19.9908Q73.5647 19.8407 73.6327 19.7163Q73.7008 19.592 73.8251 19.5028Q73.9495 19.4136 74.1231 19.3644Q74.2967 19.3151 74.5126 19.3151Q75.2024 19.3151 75.7327 19.6624L75.7327 18.8834Q75.24 18.6675 74.6158 18.6675Q74.2639 18.6675 73.9331 18.7567Q73.6022 18.8458 73.3441 19.0218Q73.086 19.1978 72.9312 19.4582Q72.7763 19.7187 72.7763 20.0565Q72.7763 20.3334 72.8584 20.5399Q72.9406 20.7464 73.1025 20.9083Q73.2644 21.0702 73.506 21.1992Q73.7477 21.3283 74.0668 21.455Q74.2967 21.5441 74.4962 21.6262Q74.6956 21.7084 74.8434 21.8116Q74.9913 21.9148 75.0781 22.0486Q75.1649 22.1823 75.1649 22.3747Q75.1649 23.0505 74.1513 23.0505Q73.3958 23.0505 72.7669 22.5859ZM72.2226 19.5591Q72.0208 19.4043 71.6407 19.4043Q71.148 19.4043 70.8171 19.8688Q70.4863 20.3334 70.4863 21.1359L70.4863 23.5854L69.7167 23.5854L69.7167 18.7801L70.4863 18.7801L70.4863 19.7703L70.5051 19.7703Q70.6693 19.2635 71.0072 18.9796Q71.345 18.6957 71.7627 18.6957Q72.063 18.6957 72.2226 18.7614L72.2226 19.5591ZM42.2035 23.5854L42.9731 23.5854L42.9731 18.7801L42.2035 18.7801L42.2035 23.5854ZM29.1767 21.6239L29.1767 20.9528Q29.1767 20.2489 29.5849 19.782Q29.9932 19.3151 30.6642 19.3151Q31.2977 19.3151 31.6685 19.7703Q32.0392 20.2255 32.0392 21.0279Q32.0392 21.9805 31.6427 22.5155Q31.2461 23.0505 30.5469 23.0505Q29.9509 23.0505 29.5638 22.6352Q29.1767 22.2199 29.1767 21.6239ZM46.5959 19.3151Q45.8544 19.3151 45.4227 19.8196Q44.991 20.324 44.991 21.2109Q44.991 22.065 45.4274 22.5577Q45.8638 23.0505 46.5959 23.0505Q47.342 23.0505 47.7432 22.5671Q48.1445 22.0838 48.1445 21.1922Q48.1445 20.2912 47.7432 19.8031Q47.342 19.3151 46.5959 19.3151ZM56.1267 20.7041L56.1267 21.4127Q56.1267 22.1213 55.7255 22.5859Q55.3243 23.0505 54.6814 23.0505Q54.0291 23.0505 53.6419 22.5695Q53.2548 22.0885 53.2548 21.2579Q53.2548 20.3475 53.6584 19.8313Q54.0619 19.3151 54.7658 19.3151Q55.3571 19.3151 55.7419 19.7187Q56.1267 20.1222 56.1267 20.7041ZM60.519 19.3151Q59.7776 19.3151 59.3459 19.8196Q58.9142 20.324 58.9142 21.2109Q58.9142 22.065 59.3506 22.5577Q59.787 23.0505 60.519 23.0505Q61.2652 23.0505 61.6664 22.5671Q62.0676 22.0838 62.0676 21.1922Q62.0676 20.2912 61.6664 19.8031Q61.2652 19.3151 60.519 19.3151ZM64.9771 19.8196Q65.4088 19.3151 66.1503 19.3151Q66.8964 19.3151 67.2976 19.8031Q67.6988 20.2912 67.6988 21.1922Q67.6988 22.0838 67.2976 22.5671Q66.8964 23.0505 66.1503 23.0505Q65.4182 23.0505 64.9818 22.5577Q64.5454 22.065 64.5454 21.2109Q64.5454 20.324 64.9771 19.8196ZM35.5681 21.3142L36.7272 21.1546L36.7272 21.6333Q36.7272 22.248 36.3541 22.6492Q35.981 23.0505 35.4085 23.0505Q34.9909 23.0505 34.7398 22.8276Q34.4888 22.6047 34.4888 22.2527Q34.4888 21.7694 34.7609 21.5793Q35.0331 21.3893 35.5681 21.3142Z" />
        </g>
      </g>
      <g id="in-the-Nation" transform="translate(11 77.26141)">
        <g id="in-the" fill="#00345D">
          <path d="M105.546 29.3848L102.698 29.3848L102.698 19.1398Q102.698 13.5832 98.5657 13.5832Q96.482 13.5832 95.0581 15.1894Q93.6342 16.7956 93.6342 19.3134L93.6342 29.3848L90.7864 29.3848L90.7864 3.0603L93.6342 3.0603L93.6342 14.5556L93.7036 14.5556Q95.7527 11.1869 99.5381 11.1869Q105.546 11.1869 105.546 18.4279L105.546 29.3848ZM41.7144 7.08886Q40.9504 7.08886 40.4121 6.56793Q39.8738 6.04699 39.8738 5.24823Q39.8738 4.44946 40.4121 3.91985Q40.9504 3.39023 41.7144 3.39023Q42.4958 3.39023 43.0428 3.91985Q43.5898 4.44946 43.5898 5.24823Q43.5898 6.01226 43.0428 6.55056Q42.4958 7.08886 41.7144 7.08886ZM84.3268 29.7669Q85.9765 29.7669 86.9836 29.2112L86.9836 26.7802Q86.2022 27.3706 85.1256 27.3706Q83.7191 27.3706 83.1113 26.6065Q82.5036 25.8425 82.5036 24.0539L82.5036 14.0346L86.9836 14.0346L86.9836 11.6036L82.5036 11.6036L82.5036 6.34219L79.6558 7.26251L79.6558 11.6036L76.5997 11.6036L76.5997 14.0346L79.6558 14.0346L79.6558 24.5575Q79.6558 29.7669 84.3268 29.7669ZM63.6284 29.3848L60.7806 29.3848L60.7806 19.244Q60.7806 13.5832 56.6479 13.5832Q54.5121 13.5832 53.1142 15.1894Q51.7164 16.7956 51.7164 19.244L51.7164 29.3848L48.8686 29.3848L48.8686 11.6036L51.7164 11.6036L51.7164 14.5556L51.7858 14.5556Q53.8001 11.1869 57.6203 11.1869Q60.5375 11.1869 62.083 13.0709Q63.6284 14.955 63.6284 18.5147L63.6284 29.3848ZM112.648 21.2062L125.203 21.2062L125.203 19.7128Q125.203 15.7016 123.293 13.4443Q121.383 11.1869 117.892 11.1869Q114.402 11.1869 112.049 13.8002Q109.696 16.4136 109.696 20.5637Q109.696 24.9569 111.85 27.3792Q114.003 29.8016 117.771 29.8016Q121.626 29.8016 123.97 28.0999L123.97 25.4257Q121.452 27.4053 118.448 27.4053Q115.774 27.4053 114.246 25.7904Q112.718 24.1755 112.648 21.2062ZM43.1036 29.3848L40.2558 29.3848L40.2558 11.6036L43.1036 11.6036L43.1036 29.3848ZM121.096 14.955Q122.268 16.3268 122.286 18.7925L112.683 18.7925Q113.013 16.4657 114.419 15.0244Q115.826 13.5832 117.84 13.5832Q119.924 13.5832 121.096 14.955Z" />
        </g>
        <g id="Nation" fill="#00345D">
          <path d="M88.6245 41.4369Q89.1628 41.9578 89.9269 41.9578Q90.7083 41.9578 91.2553 41.4195Q91.8022 40.8812 91.8022 40.1172Q91.8022 39.3184 91.2553 38.7888Q90.7083 38.2592 89.9269 38.2592Q89.1628 38.2592 88.6245 38.7888Q88.0862 39.3184 88.0862 40.1172Q88.0862 40.916 88.6245 41.4369ZM48.5994 64.2538L52.1765 64.2538L52.1765 39.3532L49.2593 39.3532L49.2593 56.8913Q49.2593 59.4786 49.4329 60.5552L49.3635 60.5552Q49.1377 60.1037 48.3563 58.8882L35.8887 39.3532L32.1032 39.3532L32.1032 64.2538L35.0204 64.2538L35.0204 46.2642Q35.0204 43.6422 34.8815 42.8434L34.9857 42.8434Q35.2983 43.6596 35.7845 44.4062L48.5994 64.2538ZM84.6654 64.0802Q83.6583 64.6358 82.0087 64.6358Q77.3376 64.6358 77.3376 59.4265L77.3376 48.9036L74.2815 48.9036L74.2815 46.4726L77.3376 46.4726L77.3376 42.1315L80.1854 41.2112L80.1854 46.4726L84.6654 46.4726L84.6654 48.9036L80.1854 48.9036L80.1854 58.9229Q80.1854 60.7115 80.7932 61.4755Q81.4009 62.2395 82.8074 62.2395Q83.884 62.2395 84.6654 61.6491L84.6654 64.0802ZM68.2039 64.2538L71.0517 64.2538L71.0517 52.6891Q71.0517 46.0559 64.7831 46.0559Q61.3623 46.0559 58.7403 47.7228L58.7403 50.6401Q61.3276 48.4521 64.54 48.4521Q68.2039 48.4521 68.2039 52.9843L62.873 53.7309Q57.0038 54.5471 57.0038 59.5307Q57.0038 61.8575 58.5059 63.264Q60.0079 64.6706 62.6647 64.6706Q66.2765 64.6706 68.1345 61.4755L68.2039 61.4755L68.2039 64.2538ZM104.513 64.6706Q100.571 64.6706 98.2184 62.1788Q95.8655 59.687 95.8655 55.5716Q95.8655 51.0915 98.3139 48.5737Q100.762 46.0559 104.93 46.0559Q108.906 46.0559 111.138 48.5042Q113.369 50.9526 113.369 55.2938Q113.369 59.548 110.964 62.1093Q108.559 64.6706 104.513 64.6706ZM129.83 64.2538L132.678 64.2538L132.678 53.3837Q132.678 49.8239 131.133 47.9399Q129.587 46.0559 126.67 46.0559Q122.85 46.0559 120.836 49.4246L120.766 49.4246L120.766 46.4726L117.918 46.4726L117.918 64.2538L120.766 64.2538L120.766 54.113Q120.766 51.6646 122.164 50.0584Q123.562 48.4521 125.698 48.4521Q129.83 48.4521 129.83 54.113L129.83 64.2538ZM88.4683 64.2538L91.316 64.2538L91.316 46.4726L88.4683 46.4726L88.4683 64.2538ZM104.721 48.4521Q101.978 48.4521 100.38 50.3188Q98.7828 52.1855 98.7828 55.4674Q98.7828 58.6277 100.398 60.451Q102.013 62.2743 104.721 62.2743Q107.482 62.2743 108.967 60.4857Q110.452 58.6972 110.452 55.3979Q110.452 52.064 108.967 50.2581Q107.482 48.4521 104.721 48.4521ZM63.9149 55.8494L68.2039 55.259L68.2039 57.0302Q68.2039 59.3049 66.8235 60.7896Q65.443 62.2743 63.3245 62.2743Q61.7791 62.2743 60.8501 61.4495Q59.9211 60.6246 59.9211 59.3223Q59.9211 57.5338 60.9282 56.8305Q61.9354 56.1272 63.9149 55.8494Z" />
        </g>
      </g>
      <g id="#1" fill="#00345D" transform="translate(30.05115 17.04062)">
        <path d="M73.8509 65.032L78.9816 65.032L78.9816 19.1689L77.042 19.1689Q75.8531 20.2013 74.2263 21.2807Q72.5996 22.36 70.7694 23.3454Q68.9393 24.3309 67.0466 25.1287Q65.1538 25.9264 63.4645 26.3957L63.4645 31.5889Q64.9661 31.2135 66.546 30.5565Q68.1259 29.8995 69.5493 29.1487Q70.9728 28.3979 72.1146 27.6314Q73.2565 26.8649 73.8509 26.2705L73.8509 65.032ZM54.2355 36.0626L54.9551 32.7464L46.7273 32.7464L49.3552 20.1701L45.5072 20.1701L42.8167 32.7464L34.933 32.7464L37.5609 20.1701L33.6191 20.1701L30.9912 32.7464L22.3253 32.7464L21.6684 36.0626L30.3342 36.0626L28.4258 45.4479L20.1354 45.4479L19.5097 48.7641L27.7063 48.7641L25.0784 61.184L28.9889 61.184L31.6168 48.7641L39.438 48.7641L36.7475 61.184L40.6894 61.184L43.4424 48.7641L52.0456 48.7641L52.8903 45.4479L44.0994 45.4479L46.0703 36.0626L54.2355 36.0626ZM34.3073 36.0626L42.191 36.0626L40.1888 45.4479L32.2425 45.4479L34.3073 36.0626Z" />
      </g>
    </g>
    <g id="Circle-1" transform="translate(0 1.875244)">
      <g filter="url(#filter_1)">
        <path d="M90.8905 -1.27554e-05C141.088 -1.27554e-05 181.781 40.1612 181.781 89.7029C181.781 139.245 141.088 179.406 90.8905 179.406C40.6931 179.406 -1.9908e-05 139.245 -1.9908e-05 89.7029C-1.9908e-05 40.1612 40.6931 -1.27554e-05 90.8905 -1.27554e-05Z" transform="translate(0 -3.051758E-05)" id="Ellipse-1" fill="#00345D" stroke="none" />
      </g>
      <g id="of-impact-resistant-products-in-the--nation*" transform="translate(12.5 111.7542)">
        <g id="of-impact-resistant" fill="#FFFFFF">
          <path d="M46.9503 3.20624Q47.2366 3.20624 47.4618 3.33294L47.4618 2.63846Q47.2554 2.55399 46.9034 2.55399Q46.2512 2.55399 45.8148 2.99273Q45.3784 3.43148 45.3784 4.18696L45.3784 4.96591L44.5572 4.96591L44.5572 5.62285L45.3784 5.62285L45.3784 9.77097L46.1432 9.77097L46.1432 5.62285L47.2694 5.62285L47.2694 4.96591L46.1432 4.96591L46.1432 4.2245Q46.1432 3.20624 46.9503 3.20624ZM51.1219 3.74587Q50.9155 3.74587 50.77 3.6051Q50.6245 3.46433 50.6245 3.24847Q50.6245 3.03262 50.77 2.8895Q50.9155 2.74638 51.1219 2.74638Q51.3331 2.74638 51.4809 2.8895Q51.6287 3.03262 51.6287 3.24847Q51.6287 3.45494 51.4809 3.60041Q51.3331 3.74587 51.1219 3.74587ZM96.2492 3.74587Q96.0427 3.74587 95.8972 3.6051Q95.7518 3.46433 95.7518 3.24847Q95.7518 3.03262 95.8972 2.8895Q96.0427 2.74638 96.2492 2.74638Q96.4603 2.74638 96.6081 2.8895Q96.756 3.03262 96.756 3.24847Q96.756 3.45494 96.6081 3.60041Q96.4603 3.74587 96.2492 3.74587ZM77.8219 9.87421Q78.2677 9.87421 78.5399 9.72405L78.5399 9.06711Q78.3287 9.22665 78.0378 9.22665Q77.6577 9.22665 77.4935 9.02018Q77.3292 8.81371 77.3292 8.33039L77.3292 5.62285L78.5399 5.62285L78.5399 4.96591L77.3292 4.96591L77.3292 3.5441L76.5597 3.7928L76.5597 4.96591L75.7338 4.96591L75.7338 5.62285L76.5597 5.62285L76.5597 8.46647Q76.5597 9.87421 77.8219 9.87421ZM104.489 9.72405Q104.217 9.87421 103.771 9.87421Q102.509 9.87421 102.509 8.46647L102.509 5.62285L101.683 5.62285L101.683 4.96591L102.509 4.96591L102.509 3.7928L103.278 3.5441L103.278 4.96591L104.489 4.96591L104.489 5.62285L103.278 5.62285L103.278 8.33039Q103.278 8.81371 103.443 9.02018Q103.607 9.22665 103.987 9.22665Q104.278 9.22665 104.489 9.06711L104.489 9.72405ZM117.356 9.87421Q117.802 9.87421 118.074 9.72405L118.074 9.06711Q117.863 9.22665 117.572 9.22665Q117.192 9.22665 117.027 9.02018Q116.863 8.81371 116.863 8.33039L116.863 5.62285L118.074 5.62285L118.074 4.96591L116.863 4.96591L116.863 3.5441L116.094 3.7928L116.094 4.96591L115.268 4.96591L115.268 5.62285L116.094 5.62285L116.094 8.46647Q116.094 9.87421 117.356 9.87421ZM39.7639 9.21023Q40.3997 9.88359 41.4649 9.88359Q42.5582 9.88359 43.2081 9.19146Q43.858 8.49932 43.858 7.34967Q43.858 6.17656 43.255 5.51492Q42.6521 4.85329 41.5775 4.85329Q40.4513 4.85329 39.7897 5.53369Q39.128 6.2141 39.128 7.42475Q39.128 8.53686 39.7639 9.21023ZM59.1085 9.77097L59.878 9.77097L59.878 6.81004Q59.878 4.85329 58.292 4.85329Q57.2315 4.85329 56.6966 5.84809Q56.5605 5.40231 56.1945 5.1278Q55.8284 4.85329 55.3357 4.85329Q54.355 4.85329 53.8435 5.72608L53.8248 5.72608L53.8248 4.96591L53.0552 4.96591L53.0552 9.77097L53.8248 9.77097L53.8248 7.03058Q53.8248 6.35018 54.1532 5.92551Q54.4817 5.50085 54.9885 5.50085Q56.0818 5.50085 56.0818 6.91797L56.0818 9.77097L56.8514 9.77097L56.8514 7.03058Q56.8514 6.4018 57.1963 5.95132Q57.5412 5.50085 58.0339 5.50085Q58.6158 5.50085 58.8621 5.85747Q59.1085 6.2141 59.1085 7.01182L59.1085 9.77097ZM62.121 9.07649L62.1022 9.07649L62.1022 11.9811L61.3327 11.9811L61.3327 4.96591L62.1022 4.96591L62.1022 5.81055L62.121 5.81055Q62.6888 4.85329 63.7821 4.85329Q64.7113 4.85329 65.2321 5.4985Q65.753 6.14371 65.753 7.22767Q65.753 8.43363 65.1664 9.15861Q64.5799 9.88359 63.5616 9.88359Q62.6278 9.88359 62.121 9.07649ZM69.6524 9.77097L70.422 9.77097L70.422 6.6458Q70.422 4.85329 68.728 4.85329Q67.8036 4.85329 67.095 5.30376L67.095 6.0921Q67.7942 5.50085 68.6623 5.50085Q69.6524 5.50085 69.6524 6.72558L68.2118 6.92735Q66.6258 7.1479 66.6258 8.49463Q66.6258 9.12342 67.0317 9.5035Q67.4376 9.88359 68.1555 9.88359Q69.1315 9.88359 69.6336 9.02018L69.6524 9.02018L69.6524 9.77097ZM75.1472 9.55043Q74.5935 9.88359 73.8334 9.88359Q72.8057 9.88359 72.1746 9.21492Q71.5434 8.54624 71.5434 7.48106Q71.5434 6.29387 72.2239 5.57358Q72.9043 4.85329 74.0398 4.85329Q74.6733 4.85329 75.1566 5.08791L75.1566 5.87624Q74.6217 5.50085 74.0117 5.50085Q73.275 5.50085 72.8034 6.02875Q72.3318 6.55665 72.3318 7.41537Q72.3318 8.26001 72.7752 8.74802Q73.2187 9.23603 73.9648 9.23603Q74.5935 9.23603 75.1472 8.81841L75.1472 9.55043ZM90.6135 7.56083L87.2209 7.56083Q87.2397 8.36324 87.6526 8.79964Q88.0656 9.23603 88.7882 9.23603Q89.6 9.23603 90.2804 8.7011L90.2804 9.42373Q89.6469 9.88359 88.6052 9.88359Q87.5869 9.88359 87.0051 9.229Q86.4232 8.5744 86.4232 7.38721Q86.4232 6.26572 87.059 5.5595Q87.6948 4.85329 88.638 4.85329Q89.5812 4.85329 90.0974 5.46331Q90.6135 6.07333 90.6135 7.15728L90.6135 7.56083ZM91.4863 8.77148L91.4863 9.59735Q92.0307 9.88359 92.7721 9.88359Q93.1475 9.88359 93.49 9.79913Q93.8326 9.71466 94.0953 9.54104Q94.3581 9.36742 94.5153 9.10465Q94.6725 8.84187 94.6725 8.48524Q94.6725 8.19431 94.5763 7.98315Q94.4801 7.77199 94.3018 7.6101Q94.1235 7.44821 93.8701 7.31917Q93.6167 7.19013 93.2976 7.06812Q93.0583 6.97428 92.8706 6.8945Q92.6829 6.81473 92.5515 6.71619Q92.4201 6.61765 92.3521 6.49095Q92.2841 6.36426 92.2841 6.17656Q92.2841 6.0264 92.3521 5.90205Q92.4201 5.7777 92.5445 5.68855Q92.6688 5.59939 92.8425 5.55012Q93.0161 5.50085 93.2319 5.50085Q93.9217 5.50085 94.452 5.84809L94.452 5.06914Q93.9593 4.85329 93.3352 4.85329Q92.9832 4.85329 92.6524 4.94245Q92.3216 5.0316 92.0635 5.20757Q91.8054 5.38354 91.6506 5.64397Q91.4957 5.9044 91.4957 6.24225Q91.4957 6.51911 91.5778 6.72558Q91.66 6.93204 91.8219 7.09393Q91.9837 7.25582 92.2254 7.38486Q92.4671 7.51391 92.7861 7.6406Q93.0161 7.72976 93.2155 7.81188Q93.4149 7.89399 93.5628 7.99723Q93.7106 8.10046 93.7974 8.2342Q93.8842 8.36793 93.8842 8.56032Q93.8842 9.23603 92.8706 9.23603Q92.1151 9.23603 91.4863 8.77148ZM97.8915 8.77148L97.8915 9.59735Q98.4359 9.88359 99.1773 9.88359Q99.5527 9.88359 99.8952 9.79913Q100.238 9.71466 100.501 9.54104Q100.763 9.36742 100.921 9.10465Q101.078 8.84187 101.078 8.48524Q101.078 8.19431 100.982 7.98315Q100.885 7.77199 100.707 7.6101Q100.529 7.44821 100.275 7.31917Q100.022 7.19013 99.7028 7.06812Q99.4635 6.97428 99.2758 6.8945Q99.0881 6.81473 98.9567 6.71619Q98.8253 6.61765 98.7573 6.49095Q98.6892 6.36426 98.6892 6.17656Q98.6892 6.0264 98.7573 5.90205Q98.8253 5.7777 98.9497 5.68855Q99.074 5.59939 99.2477 5.55012Q99.4213 5.50085 99.6371 5.50085Q100.327 5.50085 100.857 5.84809L100.857 5.06914Q100.364 4.85329 99.7404 4.85329Q99.3884 4.85329 99.0576 4.94245Q98.7268 5.0316 98.4687 5.20757Q98.2106 5.38354 98.0558 5.64397Q97.9009 5.9044 97.9009 6.24225Q97.9009 6.51911 97.983 6.72558Q98.0652 6.93204 98.227 7.09393Q98.3889 7.25582 98.6306 7.38486Q98.8723 7.51391 99.1913 7.6406Q99.4213 7.72976 99.6207 7.81188Q99.8201 7.89399 99.9679 7.99723Q100.116 8.10046 100.203 8.2342Q100.289 8.36793 100.289 8.56032Q100.289 9.23603 99.2758 9.23603Q98.5203 9.23603 97.8915 8.77148ZM108.187 9.77097L108.956 9.77097L108.956 6.6458Q108.956 4.85329 107.262 4.85329Q106.338 4.85329 105.629 5.30376L105.629 6.0921Q106.329 5.50085 107.197 5.50085Q108.187 5.50085 108.187 6.72558L106.746 6.92735Q105.16 7.1479 105.16 8.49463Q105.16 9.12342 105.566 9.5035Q105.972 9.88359 106.69 9.88359Q107.666 9.88359 108.168 9.02018L108.187 9.02018L108.187 9.77097ZM114.395 9.77097L113.625 9.77097L113.625 7.03058Q113.625 5.50085 112.509 5.50085Q111.931 5.50085 111.554 5.9349Q111.176 6.36895 111.176 7.03058L111.176 9.77097L110.406 9.77097L110.406 4.96591L111.176 4.96591L111.176 5.76362L111.195 5.76362Q111.739 4.85329 112.771 4.85329Q113.56 4.85329 113.977 5.36242Q114.395 5.87155 114.395 6.8335L114.395 9.77097ZM85.3345 5.59Q85.7146 5.59 85.9164 5.74485L85.9164 4.94714Q85.7569 4.88144 85.4566 4.88144Q85.0389 4.88144 84.7011 5.16534Q84.3632 5.44923 84.199 5.95601L84.1802 5.95601L84.1802 4.96591L83.4106 4.96591L83.4106 9.77097L84.1802 9.77097L84.1802 7.32152Q84.1802 6.51911 84.511 6.05456Q84.8418 5.59 85.3345 5.59ZM51.4973 9.77097L50.7278 9.77097L50.7278 4.96591L51.4973 4.96591L51.4973 9.77097ZM96.6246 9.77097L95.855 9.77097L95.855 4.96591L96.6246 4.96591L96.6246 9.77097ZM40.3481 6.00529Q40.7798 5.50085 41.5212 5.50085Q42.2673 5.50085 42.6685 5.98886Q43.0697 6.47688 43.0697 7.37783Q43.0697 8.26939 42.6685 8.75271Q42.2673 9.23603 41.5212 9.23603Q40.7892 9.23603 40.3528 8.74333Q39.9164 8.25062 39.9164 7.3966Q39.9164 6.50972 40.3481 6.00529ZM62.1022 7.13851L62.1022 7.80953Q62.1022 8.40547 62.4894 8.82075Q62.8765 9.23603 63.4724 9.23603Q64.1716 9.23603 64.5681 8.7011Q64.9646 8.16616 64.9646 7.21359Q64.9646 6.41118 64.5939 5.95601Q64.2232 5.50085 63.5898 5.50085Q62.9187 5.50085 62.5105 5.96775Q62.1022 6.43464 62.1022 7.13851ZM89.8252 6.90858Q89.8205 6.24225 89.5038 5.87155Q89.187 5.50085 88.6239 5.50085Q88.0796 5.50085 87.6995 5.89032Q87.3195 6.27979 87.2303 6.90858L89.8252 6.90858ZM82.0264 7.3966L79.4643 7.3966L79.4643 6.79127L82.0264 6.79127L82.0264 7.3966ZM68.4934 7.49983L69.6524 7.34029L69.6524 7.81892Q69.6524 8.43363 69.2793 8.83483Q68.9063 9.23603 68.3338 9.23603Q67.9162 9.23603 67.6651 9.01314Q67.4141 8.79025 67.4141 8.43832Q67.4141 7.955 67.6863 7.76495Q67.9584 7.57491 68.4934 7.49983ZM107.028 7.49983L108.187 7.34029L108.187 7.81892Q108.187 8.43363 107.814 8.83483Q107.441 9.23603 106.868 9.23603Q106.451 9.23603 106.2 9.01314Q105.948 8.79025 105.948 8.43832Q105.948 7.955 106.221 7.76495Q106.493 7.57491 107.028 7.49983Z" />
        </g>
        <g id="products-in-the" fill="#FFFFFF">
          <path d="M64.5634 23.5845L63.7939 23.5845L63.7939 22.768L63.7751 22.768Q63.2402 23.6971 62.1234 23.6971Q61.2177 23.6971 60.6757 23.0519Q60.1338 22.4067 60.1338 21.2946Q60.1338 20.1027 60.7344 19.3847Q61.335 18.6668 62.3345 18.6668Q63.3246 18.6668 63.7751 19.4457L63.7939 19.4457L63.7939 16.4707L64.5634 16.4707L64.5634 23.5845ZM103.609 23.5845L102.84 23.5845L102.84 20.8159Q102.84 19.3144 101.723 19.3144Q101.16 19.3144 100.775 19.7484Q100.39 20.1825 100.39 20.8629L100.39 23.5845L99.6207 23.5845L99.6207 16.4707L100.39 16.4707L100.39 19.5771L100.409 19.5771Q100.963 18.6668 101.986 18.6668Q103.609 18.6668 103.609 20.6235L103.609 23.5845ZM86.0079 17.4186Q86.1534 17.5594 86.3598 17.5594Q86.571 17.5594 86.7188 17.4139Q86.8666 17.2684 86.8666 17.062Q86.8666 16.8461 86.7188 16.703Q86.571 16.5599 86.3598 16.5599Q86.1534 16.5599 86.0079 16.703Q85.8624 16.8461 85.8624 17.062Q85.8624 17.2778 86.0079 17.4186ZM77.5099 23.6877Q77.9557 23.6877 78.2278 23.5376L78.2278 22.8806Q78.0167 23.0402 77.7258 23.0402Q77.3457 23.0402 77.1814 22.8337Q77.0172 22.6272 77.0172 22.1439L77.0172 19.4364L78.2278 19.4364L78.2278 18.7794L77.0172 18.7794L77.0172 17.3576L76.2476 17.6063L76.2476 18.7794L75.4218 18.7794L75.4218 19.4364L76.2476 19.4364L76.2476 22.28Q76.2476 23.6877 77.5099 23.6877ZM97.8751 23.6877Q98.3209 23.6877 98.5931 23.5376L98.5931 22.8806Q98.3819 23.0402 98.091 23.0402Q97.7109 23.0402 97.5466 22.8337Q97.3824 22.6272 97.3824 22.1439L97.3824 19.4364L98.5931 19.4364L98.5931 18.7794L97.3824 18.7794L97.3824 17.3576L96.6128 17.6063L96.6128 18.7794L95.787 18.7794L95.787 19.4364L96.6128 19.4364L96.6128 22.28Q96.6128 23.6877 97.8751 23.6877ZM46.6289 22.89L46.6101 22.89L46.6101 25.7946L45.8406 25.7946L45.8406 18.7794L46.6101 18.7794L46.6101 19.6241L46.6289 19.6241Q47.1967 18.6668 48.29 18.6668Q49.2191 18.6668 49.74 19.312Q50.2609 19.9572 50.2609 21.0412Q50.2609 22.2471 49.6743 22.9721Q49.0877 23.6971 48.0695 23.6971Q47.1357 23.6971 46.6289 22.89ZM55.1387 23.0237Q55.7745 23.6971 56.8397 23.6971Q57.933 23.6971 58.5829 23.005Q59.2328 22.3128 59.2328 21.1632Q59.2328 19.9901 58.6298 19.3284Q58.0269 18.6668 56.9523 18.6668Q55.8261 18.6668 55.1645 19.3472Q54.5028 20.0276 54.5028 21.2383Q54.5028 22.3504 55.1387 23.0237ZM74.8352 23.3639Q74.2815 23.6971 73.5213 23.6971Q72.4937 23.6971 71.8625 23.0284Q71.2314 22.3598 71.2314 21.2946Q71.2314 20.1074 71.9118 19.3871Q72.5922 18.6668 73.7278 18.6668Q74.3613 18.6668 74.8446 18.9014L74.8446 19.6898Q74.3096 19.3144 73.6996 19.3144Q72.9629 19.3144 72.4913 19.8423Q72.0197 20.3702 72.0197 21.2289Q72.0197 22.0735 72.4632 22.5615Q72.9066 23.0495 73.6527 23.0495Q74.2815 23.0495 74.8352 22.6319L74.8352 23.3639ZM78.9646 23.4109L78.9646 22.585Q79.5933 23.0495 80.3488 23.0495Q81.3624 23.0495 81.3624 22.3738Q81.3624 22.1814 81.2756 22.0477Q81.1888 21.914 81.041 21.8107Q80.8932 21.7075 80.6937 21.6254Q80.4943 21.5433 80.2644 21.4541Q79.9453 21.3274 79.7036 21.1984Q79.462 21.0693 79.3001 20.9074Q79.1382 20.7456 79.0561 20.5391Q78.9739 20.3326 78.9739 20.0558Q78.9739 19.7179 79.1288 19.4575Q79.2836 19.197 79.5417 19.0211Q79.7998 18.8451 80.1306 18.756Q80.4614 18.6668 80.8134 18.6668Q81.4375 18.6668 81.9302 18.8826L81.9302 19.6616Q81.3999 19.3144 80.7101 19.3144Q80.4943 19.3144 80.3207 19.3636Q80.147 19.4129 80.0227 19.5021Q79.8984 19.5912 79.8303 19.7156Q79.7623 19.8399 79.7623 19.9901Q79.7623 20.1778 79.8303 20.3045Q79.8984 20.4312 80.0297 20.5297Q80.1611 20.6282 80.3488 20.708Q80.5365 20.7878 80.7758 20.8816Q81.0949 21.0036 81.3483 21.1327Q81.6017 21.2617 81.78 21.4236Q81.9583 21.5855 82.0545 21.7967Q82.1507 22.0078 82.1507 22.2987Q82.1507 22.6554 81.9935 22.9182Q81.8363 23.1809 81.5736 23.3546Q81.3108 23.5282 80.9682 23.6126Q80.6257 23.6971 80.2503 23.6971Q79.5089 23.6971 78.9646 23.4109ZM92.2817 23.5845L91.5122 23.5845L91.5122 20.8441Q91.5122 19.3144 90.3954 19.3144Q89.8182 19.3144 89.4404 19.7484Q89.0627 20.1825 89.0627 20.8441L89.0627 23.5845L88.2931 23.5845L88.2931 18.7794L89.0627 18.7794L89.0627 19.5771L89.0815 19.5771Q89.6258 18.6668 90.6581 18.6668Q91.4465 18.6668 91.8641 19.1759Q92.2817 19.6851 92.2817 20.647L92.2817 23.5845ZM105.528 21.3743L108.921 21.3743L108.921 20.9708Q108.921 19.8868 108.405 19.2768Q107.889 18.6668 106.946 18.6668Q106.002 18.6668 105.367 19.373Q104.731 20.0792 104.731 21.2007Q104.731 22.3879 105.313 23.0425Q105.895 23.6971 106.913 23.6971Q107.954 23.6971 108.588 23.2372L108.588 22.5146Q107.908 23.0495 107.096 23.0495Q106.373 23.0495 105.96 22.6131Q105.547 22.1767 105.528 21.3743ZM53.996 19.5584Q53.7943 19.4035 53.4142 19.4035Q52.9215 19.4035 52.5907 19.8681Q52.2598 20.3326 52.2598 21.135L52.2598 23.5845L51.4903 23.5845L51.4903 18.7794L52.2598 18.7794L52.2598 19.7695L52.2786 19.7695Q52.4428 19.2627 52.7807 18.9788Q53.1186 18.695 53.5362 18.695Q53.8365 18.695 53.996 18.7606L53.996 19.5584ZM69.2371 23.5845L70.0067 23.5845L70.0067 18.7794L69.2371 18.7794L69.2371 21.548Q69.2371 22.219 68.8735 22.6343Q68.5098 23.0495 67.9467 23.0495Q66.783 23.0495 66.783 21.5292L66.783 18.7794L66.0181 18.7794L66.0181 21.6512Q66.0181 23.6971 67.7355 23.6971Q68.7397 23.6971 69.2183 22.8243L69.2371 22.8243L69.2371 23.5845ZM85.9657 23.5845L86.7352 23.5845L86.7352 18.7794L85.9657 18.7794L85.9657 23.5845ZM46.6101 20.952L46.6101 21.623Q46.6101 22.219 46.9973 22.6343Q47.3844 23.0495 47.9803 23.0495Q48.6795 23.0495 49.076 22.5146Q49.4725 21.9797 49.4725 21.0271Q49.4725 20.2247 49.1018 19.7695Q48.7311 19.3144 48.0976 19.3144Q47.4266 19.3144 47.0184 19.7813Q46.6101 20.2482 46.6101 20.952ZM55.7229 19.8188Q56.1546 19.3144 56.896 19.3144Q57.6421 19.3144 58.0433 19.8024Q58.4445 20.2904 58.4445 21.1913Q58.4445 22.0829 58.0433 22.5662Q57.6421 23.0495 56.896 23.0495Q56.164 23.0495 55.7276 22.5568Q55.2912 22.0641 55.2912 21.2101Q55.2912 20.3232 55.7229 19.8188ZM63.7939 21.4119L63.7939 20.7033Q63.7939 20.1215 63.4091 19.7179Q63.0243 19.3144 62.4331 19.3144Q61.7292 19.3144 61.3256 19.8305Q60.9221 20.3467 60.9221 21.257Q60.9221 22.0876 61.3092 22.5686Q61.6964 23.0495 62.3486 23.0495Q62.9915 23.0495 63.3927 22.585Q63.7939 22.1204 63.7939 21.4119ZM107.811 19.6851Q108.128 20.0558 108.133 20.7221L105.538 20.7221Q105.627 20.0933 106.007 19.7038Q106.387 19.3144 106.932 19.3144Q107.495 19.3144 107.811 19.6851Z" />
        </g>
        <g id="nation*" fill="#FFFFFF">
          <path d="M77.7633 31.3729Q77.5568 31.3729 77.4113 31.2321Q77.2659 31.0913 77.2659 30.8755Q77.2659 30.6596 77.4113 30.5165Q77.5568 30.3734 77.7633 30.3734Q77.9744 30.3734 78.1223 30.5165Q78.2701 30.6596 78.2701 30.8755Q78.2701 31.082 78.1223 31.2274Q77.9744 31.3729 77.7633 31.3729ZM92.3615 32.4803L93.6472 32.2175L93.4501 31.631L92.216 32.0955L92.3239 30.669L91.6764 30.669L91.7843 32.0955L90.5549 31.631L90.3437 32.2175L91.6388 32.4803L90.7473 33.6206L91.2635 33.9772L92.0049 32.7337L92.7369 33.9772L93.2531 33.6206L92.3615 32.4803ZM75.6235 37.5012Q76.0693 37.5012 76.3415 37.3511L76.3415 36.6941Q76.1303 36.8537 75.8394 36.8537Q75.4593 36.8537 75.2951 36.6472Q75.1308 36.4407 75.1308 35.9574L75.1308 33.2499L76.3415 33.2499L76.3415 32.5929L75.1308 32.5929L75.1308 31.1711L74.3613 31.4198L74.3613 32.5929L73.5354 32.5929L73.5354 33.2499L74.3613 33.2499L74.3613 36.0935Q74.3613 37.5012 75.6235 37.5012ZM67.7731 37.398L67.0035 37.398L67.0035 34.6576Q67.0035 33.1279 65.8867 33.1279Q65.3095 33.1279 64.9318 33.5619Q64.554 33.996 64.554 34.6576L64.554 37.398L63.7845 37.398L63.7845 32.5929L64.554 32.5929L64.554 33.3906L64.5728 33.3906Q65.1171 32.4803 66.1495 32.4803Q66.9378 32.4803 67.3554 32.9894Q67.7731 33.4986 67.7731 34.4605L67.7731 37.398ZM72.6626 37.398L71.893 37.398L71.893 36.6472L71.8743 36.6472Q71.3722 37.5106 70.3961 37.5106Q69.6782 37.5106 69.2723 37.1305Q68.8664 36.7504 68.8664 36.1216Q68.8664 34.7749 70.4525 34.5544L71.893 34.3526Q71.893 33.1279 70.9029 33.1279Q70.0348 33.1279 69.3356 33.7191L69.3356 32.9308Q70.0442 32.4803 70.9686 32.4803Q72.6626 32.4803 72.6626 34.2728L72.6626 37.398ZM80.0039 36.8372Q80.6398 37.5106 81.7049 37.5106Q82.7983 37.5106 83.4482 36.8185Q84.0981 36.1263 84.0981 34.9767Q84.0981 33.8036 83.4951 33.1419Q82.8921 32.4803 81.8176 32.4803Q80.6914 32.4803 80.0297 33.1607Q79.3681 33.8411 79.3681 35.0518Q79.3681 36.1639 80.0039 36.8372ZM89.3161 37.398L88.5465 37.398L88.5465 34.6576Q88.5465 33.1279 87.4297 33.1279Q86.8526 33.1279 86.4748 33.5619Q86.0971 33.996 86.0971 34.6576L86.0971 37.398L85.3275 37.398L85.3275 32.5929L86.0971 32.5929L86.0971 33.3906L86.1158 33.3906Q86.6602 32.4803 87.6925 32.4803Q88.4808 32.4803 88.8985 32.9894Q89.3161 33.4986 89.3161 34.4605L89.3161 37.398ZM78.1387 37.398L77.3691 37.398L77.3691 32.5929L78.1387 32.5929L78.1387 37.398ZM80.5881 33.6323Q81.0198 33.1279 81.7612 33.1279Q82.5073 33.1279 82.9086 33.6159Q83.3098 34.1039 83.3098 35.0048Q83.3098 35.8964 82.9086 36.3797Q82.5073 36.863 81.7612 36.863Q81.0292 36.863 80.5928 36.3703Q80.1564 35.8776 80.1564 35.0236Q80.1564 34.1367 80.5881 33.6323ZM71.893 34.9673L70.734 35.1268Q70.1991 35.2019 69.9269 35.392Q69.6547 35.582 69.6547 36.0653Q69.6547 36.4173 69.9058 36.6402Q70.1568 36.863 70.5745 36.863Q71.1469 36.863 71.52 36.4618Q71.893 36.0606 71.893 35.4459L71.893 34.9673Z" />
        </g>
      </g>
      <g id="brand" fill="#FFFFFF" transform="translate(16.5 81.14459)">
        <path d="M36.7742 25.3637L36.7085 25.3637L36.7085 27.7944L34.015 27.7944L34.015 2.89627L36.7085 2.89627L36.7085 13.9329L36.7742 13.9329Q38.7614 10.5825 42.5881 10.5825Q45.8235 10.5825 47.6548 12.8407Q49.486 15.099 49.486 18.8928Q49.486 23.1137 47.4331 25.6511Q45.3801 28.1886 41.8162 28.1886Q38.4822 28.1886 36.7742 25.3637ZM113.292 27.7944L115.985 27.7944L115.985 2.89627L113.292 2.89627L113.292 13.3088L113.226 13.3088Q111.649 10.5825 108.184 10.5825Q104.686 10.5825 102.583 13.0953Q100.481 15.6081 100.481 19.7797Q100.481 23.6721 102.378 25.9303Q104.275 28.1886 107.445 28.1886Q111.354 28.1886 113.226 24.9367L113.292 24.9367L113.292 27.7944ZM74.8276 27.7944L77.521 27.7944L77.521 16.8563Q77.521 10.5825 71.5921 10.5825Q68.3567 10.5825 65.8767 12.1592L65.8767 14.9183Q68.3238 12.8489 71.3622 12.8489Q74.8276 12.8489 74.8276 17.1355L69.7855 17.8417Q64.2344 18.6136 64.2344 23.3272Q64.2344 25.5279 65.655 26.8582Q67.0756 28.1886 69.5884 28.1886Q73.0045 28.1886 74.7619 25.1666L74.8276 25.1666L74.8276 27.7944ZM96.5559 27.7944L93.8625 27.7944L93.8625 18.203Q93.8625 12.8489 89.9537 12.8489Q87.9336 12.8489 86.6115 14.3681Q85.2894 15.8873 85.2894 18.203L85.2894 27.7944L82.5959 27.7944L82.5959 10.9767L85.2894 10.9767L85.2894 13.7687L85.3551 13.7687Q87.2602 10.5825 90.8734 10.5825Q93.6325 10.5825 95.0942 12.3645Q96.5559 14.1464 96.5559 17.5132L96.5559 27.7944ZM62.5592 13.703Q61.8529 13.161 60.5226 13.161Q58.7982 13.161 57.6403 14.7869Q56.4824 16.4129 56.4824 19.2213L56.4824 27.7944L53.789 27.7944L53.789 10.9767L56.4824 10.9767L56.4824 14.442L56.5481 14.442Q57.123 12.6683 58.3055 11.6747Q59.4879 10.681 60.9496 10.681Q62.0008 10.681 62.5592 10.911L62.5592 13.703ZM36.7085 18.5808L36.7085 20.9293Q36.7085 23.0151 38.0634 24.4686Q39.4184 25.9221 41.5041 25.9221Q43.9513 25.9221 45.339 24.0498Q46.7268 22.1775 46.7268 18.8435Q46.7268 16.0351 45.4294 14.442Q44.1319 12.8489 41.9147 12.8489Q39.5662 12.8489 38.1373 14.4831Q36.7085 16.1172 36.7085 18.5808ZM113.292 17.7103L113.292 20.1903Q113.292 22.6702 111.887 24.2962Q110.483 25.9221 108.233 25.9221Q105.95 25.9221 104.595 24.2387Q103.24 22.5553 103.24 19.6483Q103.24 16.4621 104.653 14.6555Q106.065 12.8489 108.529 12.8489Q110.598 12.8489 111.945 14.2614Q113.292 15.6738 113.292 17.7103ZM70.7709 19.8454L74.8276 19.287L74.8276 20.9622Q74.8276 23.1137 73.5219 24.5179Q72.2162 25.9221 70.2125 25.9221Q68.7508 25.9221 67.8722 25.142Q66.9935 24.3619 66.9935 23.1301Q66.9935 21.4385 67.9461 20.7733Q68.8986 20.1082 70.7709 19.8454Z" />
      </g>
      <g id="#1" fill="#FFFFFF" transform="translate(28.51324 19.12476)">
        <path d="M73.3731 65.0443L78.4959 65.0443L78.4959 19.2508L76.5592 19.2508Q75.3722 20.2816 73.7479 21.3593Q72.1236 22.437 70.2962 23.4209Q68.4688 24.4049 66.579 25.2014Q64.6892 25.998 63.0024 26.4665L63.0024 31.6519Q64.5017 31.277 66.0792 30.6211Q67.6567 29.9651 69.078 29.2154Q70.4993 28.4657 71.6394 27.7004Q72.7796 26.9351 73.3731 26.3416L73.3731 65.0443ZM53.7874 36.1188L54.5059 32.8077L46.2905 32.8077L48.9145 20.2504L45.0723 20.2504L42.3859 32.8077L34.5142 32.8077L37.1381 20.2504L33.2022 20.2504L30.5783 32.8077L21.9256 32.8077L21.2697 36.1188L29.9223 36.1188L28.0169 45.4899L19.739 45.4899L19.1143 48.801L27.2984 48.801L24.6745 61.2021L28.5791 61.2021L31.203 48.801L39.0123 48.801L36.3259 61.2021L40.2618 61.2021L43.0106 48.801L51.6008 48.801L52.4442 45.4899L43.6666 45.4899L45.6346 36.1188L53.7874 36.1188ZM33.8894 36.1188L41.7612 36.1188L39.762 45.4899L31.8278 45.4899L33.8894 36.1188Z" />
      </g>
    </g>
  </g>
</svg>