<?xml version="1.0" encoding="utf-8"?>
<svg width="352px" height="98px" viewBox="0 0 352 98" version="1.1" xmlns:xlink="http://www.w3.org/1999/xlink" xmlns="http://www.w3.org/2000/svg">
  <desc>Created with Lunacy</desc>
  <defs>
    <path d="M-2.02656e-06 -9.15527e-05L3.71747 -9.15527e-05C3.71747 42.8984 38.7259 77.7977 81.7575 77.7977L268.721 77.7977L268.721 81.5031L81.7575 81.5031C36.6764 81.5031 -2.02656e-06 44.9411 -2.02656e-06 -9.15527e-05ZM301.881 69.2301C301.613 69.0218 301.228 68.723 300.874 69.0456L300.874 59.3875L304.643 59.3875C314.976 59.3875 323.352 67.7377 323.352 78.0395L323.352 83.0188C323.352 92.1868 316.2 97.4829 306.8 97.4829L300.874 97.4829L300.874 89.3339L303.735 89.3339C307.413 89.3339 310.07 86.6859 310.07 83.2226L310.07 81.5925L300.874 81.5925L300.874 74.7652C301.551 74.8322 301.398 74.0307 301.016 73.8761C300.979 73.9525 300.926 74.0213 300.874 74.0879L300.874 69.2321C300.959 69.6158 301.059 69.9857 301.552 69.9633C301.645 69.6997 301.816 69.5155 301.909 69.252L301.881 69.2301ZM332.596 60.1813C332.177 60.3086 332.206 59.9898 332.235 59.6712C332.244 59.5716 332.253 59.4728 332.248 59.3875L329.074 59.3875L329.074 81.5925L338.27 81.5925L338.27 83.2226C338.27 86.6859 335.614 89.3339 331.731 89.3339L329.074 89.3339L329.074 97.4829L335.001 97.4829C337.64 97.4829 340.075 97.051 342.229 96.2474C342.108 95.5712 342.961 95.4025 343.12 95.8962C344.56 95.2617 345.845 94.4403 346.954 93.448C346.407 93.5038 346.263 92.9612 346.512 92.728C346.912 92.6833 346.965 92.9835 347.018 93.2832C347.023 93.3132 347.028 93.3431 347.034 93.3727C349.127 91.4683 350.557 88.9368 351.096 85.8468C350.993 85.7715 350.859 85.7273 350.615 85.7917C350.83 85.7295 351.003 85.5937 351.16 85.4174C351.272 84.6471 351.349 83.855 351.349 83.0188L351.349 78.0395C351.349 67.7377 342.973 59.3875 332.639 59.3875C332.849 59.6144 332.875 60.0861 332.596 60.1813ZM349.545 62.4934C349.591 63.0733 349.333 63.3492 348.831 63.3821C348.826 63.2095 348.613 63.2449 348.474 63.2044C348.48 62.6187 348.981 62.5242 349.545 62.4934ZM348.738 64.1825C348.738 64.2401 348.752 64.2978 348.78 64.4131C348.794 64.469 348.811 64.5383 348.831 64.6278C349.667 64.6839 349.308 63.8053 348.831 63.7383C348.769 64.0117 348.738 64.0971 348.738 64.1825ZM307.797 67.4731C308.266 67.527 308.382 67.2273 308.331 66.7621C308.25 66.7428 308.184 66.7073 308.118 66.6719C307.991 66.6032 307.864 66.5346 307.618 66.584C307.718 66.8592 307.707 66.9774 307.697 67.0766C307.688 67.1787 307.68 67.2607 307.797 67.4731ZM335.629 67.1176C335.802 67.1223 335.767 67.3355 335.807 67.4731C335.834 67.8022 336.411 67.5828 336.521 67.8293C336.428 68.0921 336.257 68.2775 336.164 68.5399C335.894 68.6189 335.78 68.5411 335.667 68.4632C335.569 68.3959 335.471 68.3287 335.272 68.3629C335.551 67.779 335.537 67.5781 335.629 67.1176ZM319.215 68.8961C318.909 69.2169 318.514 68.8415 318.501 68.3629C318.967 68.3122 319.269 68.428 319.215 68.8961ZM330.127 70.8718C330.2 71.0198 330.274 71.1678 330.633 71.0305C330.513 70.7056 330.614 70.3955 330.701 70.1269C330.797 69.833 330.876 69.589 330.633 69.4294C330.492 70.0006 329.985 70.2069 329.741 70.6746C329.998 70.6124 330.062 70.7421 330.127 70.8718ZM309.937 70.1414C310.191 70.1566 310.443 70.1703 310.473 69.9633C310.774 70.1056 310.494 71.1561 309.937 71.0305L309.937 70.1414ZM309.581 70.3191C309.216 70.9672 308.846 70.723 308.384 71.3151C308.49 71.152 308.57 70.8925 308.331 70.8524C308.672 70.5993 309.107 70.4393 309.581 70.3191ZM307.44 70.8524C308.018 70.8578 307.776 71.3486 307.586 71.7344C307.514 71.882 307.449 72.0142 307.44 72.0977L306.191 72.0977C306.277 71.8427 306.547 71.7699 306.817 71.697C307.203 71.5928 307.589 71.4886 307.44 70.8524ZM308.331 71.386C308.349 71.3658 308.367 71.3418 308.384 71.3151C308.367 71.3375 308.349 71.3611 308.331 71.386ZM315.119 71.7127C315.405 71.8597 315.724 72.0238 315.825 71.7422C315.802 71.7266 315.772 71.7044 315.737 71.6785C315.486 71.492 314.973 71.1102 314.755 71.5637C314.849 71.5737 314.98 71.6412 315.119 71.7127ZM310.678 71.9366C311.045 71.8174 311.389 71.7056 311.008 71.386C311.027 71.6254 310.699 71.7042 310.4 71.7759C310.039 71.8626 309.721 71.9388 310.115 72.2754C310.15 72.1084 310.42 72.0207 310.678 71.9366ZM338.483 72.2754C338.276 72.2464 338.166 72.3145 338.126 72.4538C337.862 72.3018 337.743 72.005 337.77 71.5637C338.328 71.4808 338.566 71.7186 338.483 72.2754ZM308.689 72.8086C308.665 72.3702 308.661 71.9521 308.867 71.7422C309.131 71.8345 309.317 72.005 309.581 72.0977C309.547 72.5979 309.27 72.8553 308.689 72.8086ZM319.992 73.4269C320.056 73.2671 320.102 73.1514 319.928 72.9867L319.393 72.9867C319.358 73.3523 319.518 73.5229 319.678 73.6934C319.777 73.7984 319.876 73.9034 319.928 74.0539C319.859 73.7589 319.933 73.5742 319.992 73.4269ZM320.82 73.5203C321.566 73.6394 320.903 74.6248 320.464 74.0539C320.527 73.8208 320.778 73.7741 320.82 73.5203ZM305.937 74.5689C306.407 74.5453 306.879 74.5218 306.904 74.0539C306.322 73.9651 306.069 74.2038 305.816 74.442C305.763 74.4912 305.711 74.5405 305.656 74.5868C305.747 74.5784 305.842 74.5736 305.937 74.5689ZM317.431 74.2313C317.492 74.7044 317.899 74.8322 318.323 74.9437C318.289 74.443 318.012 74.1864 317.431 74.2313ZM336.406 75.2732C336.444 75.2816 336.483 75.29 336.521 75.2988C336.635 74.6516 336.151 74.5998 335.629 74.5868C335.605 75.098 336.006 75.1856 336.406 75.2732ZM340.137 76.317C340.129 75.9697 340.121 75.6223 339.732 75.6547C339.679 75.8433 339.704 75.9893 339.727 76.1234C339.768 76.3623 339.803 76.5631 339.375 76.8996C339.61 77.1273 340.033 77.1273 340.267 76.8996C340.148 76.7809 340.143 76.549 340.137 76.317ZM301.016 75.6547L301.016 76.0105C301.119 75.9863 301.259 75.9991 301.398 76.012C301.718 76.0414 302.037 76.0707 301.909 75.6547L301.016 75.6547ZM350.217 76.5268C350.369 76.5727 350.521 76.6186 350.615 76.7215C350.638 76.2109 350.237 76.1232 349.836 76.0355C349.798 76.0273 349.76 76.0191 349.723 76.0105C349.699 76.3702 349.958 76.4485 350.217 76.5268ZM303.871 76.8996C303.689 77.2963 302.677 77.0397 302.801 76.5441C303.029 76.791 303.643 76.6527 303.871 76.8996ZM306.987 77.8786C306.943 78.052 306.906 78.201 307.083 78.3229C307.112 78.1941 307.192 78.1166 307.272 78.0392C307.404 77.9124 307.535 77.7856 307.44 77.4332C307.34 77.4289 307.28 77.3848 307.22 77.3407C307.144 77.284 307.067 77.2273 306.904 77.2554C307.085 77.4876 307.033 77.6961 306.987 77.8786ZM349.723 79.923C348.978 79.8046 349.64 78.8196 350.08 79.3898C350.017 79.6236 349.766 79.6696 349.723 79.923ZM313.327 80.8131C313.364 80.868 313.381 81.0144 313.398 81.1591C313.434 81.4665 313.469 81.7666 313.684 81.1679C314.243 81.3033 313.84 81.6311 313.528 81.8848C313.45 81.9484 313.377 82.0073 313.327 82.0573C313.11 82.0703 313.015 81.9609 312.92 81.8516C312.795 81.7066 312.669 81.5615 312.257 81.7019C312.554 81.3449 312.736 80.8747 313.327 80.8131ZM310.651 82.769C311.146 82.7292 311.156 82.2047 311.543 82.0573C311.232 81.704 310.209 82.3708 310.651 82.769ZM317.788 84.5472C317.732 85.1194 317.389 85.0304 317.007 84.9315C316.97 84.9219 316.933 84.9122 316.896 84.903C316.922 84.5143 317.345 84.5211 317.788 84.5472ZM303.871 90.7725C303.405 90.8224 303.104 90.7077 303.158 90.2382C303.624 90.1897 304.05 90.1788 303.871 90.7725ZM335.272 93.0846C334.702 93.1768 334.717 92.6868 334.732 92.1964C334.734 92.1362 334.736 92.0761 334.736 92.0171L335.272 92.0171L335.272 93.0846ZM345.454 93.9759C345.851 94.0202 346.249 94.0645 346.155 93.6178C345.924 93.2777 345.575 93.5318 345.272 93.7532C345.141 93.849 345.018 93.9387 344.916 93.9713C345.054 93.9313 345.254 93.9536 345.454 93.9759ZM341.159 95.9303C341.238 95.7717 341.316 95.6121 341.516 95.5741C341.386 95.4083 341.192 95.3051 340.981 95.2193C341.298 94.0005 342.399 96.1587 341.159 95.9303ZM310.096 96.0197C310.006 95.9674 309.959 95.9406 309.759 96.1084C309.619 96.7929 310.613 96.7929 310.473 96.1084C310.261 96.1151 310.165 96.0599 310.096 96.0197Z" id="path_1" />
  </defs>
  <g id="Combined-shape-1635">
    <use stroke="none" fill="#00345D" fill-opacity="0.2" xlink:href="#path_1" fill-rule="evenodd" />
    <use stroke="none" fill="#FFFFFF" fill-opacity="0.2" xlink:href="#path_1" fill-rule="evenodd" />
  </g>
</svg>