<?xml version="1.0" encoding="utf-8"?>
<svg width="351px" height="97px" viewBox="0 0 351 97" version="1.1" xmlns:xlink="http://www.w3.org/1999/xlink" xmlns="http://www.w3.org/2000/svg">
  <desc>Created with Lunacy</desc>
  <defs>
    <path d="M18.7535 37.3024C19.1724 37.1745 19.1435 37.494 19.1146 37.8127C19.1056 37.9116 19.0967 38.0103 19.1011 38.0956C20.8535 38.0956 22.2744 36.6794 22.2744 34.9317L22.2744 15.8905L13.0788 15.8905L13.0788 14.2604C13.0788 10.7972 15.7352 8.14842 19.6177 8.14842L22.2744 8.14842L22.2744 0.000159502L16.3481 0.000159502C13.7089 0.000159502 11.2734 0.432026 9.12005 1.23567C9.24106 1.91188 8.38758 2.08057 8.22827 1.58681C6.78911 2.22067 5.50354 3.04349 4.39481 4.03501C4.94183 3.97963 5.08647 4.5219 4.83694 4.75394C4.43732 4.80067 4.38439 4.50012 4.33155 4.20005C4.32626 4.17002 4.32097 4.13999 4.31533 4.11031C2.22139 6.01479 0.792255 8.54662 0.252749 11.637C0.355853 11.7119 0.489746 11.7565 0.733902 11.691C0.518743 11.7536 0.346545 11.8897 0.189025 12.0653C0.0766134 12.8356 0 13.628 0 14.4635L0 19.4435C0 29.7446 8.37684 38.0956 18.7098 38.0956C18.4997 37.869 18.4742 37.3966 18.7535 37.3024ZM49.4671 28.2523C49.7353 28.4606 50.1211 28.7604 50.4751 28.4367L50.4751 34.9317C50.4751 36.6794 49.0546 38.0956 47.3018 38.0956L46.7061 38.0956C36.3728 38.0956 27.9963 29.7446 27.9963 19.4435L27.9963 14.4635C27.9963 5.29658 35.1488 0.000159502 44.5488 0.000159502L50.4751 0.000159502L50.4751 8.14842L47.6144 8.14842C43.9359 8.14842 41.2795 10.7972 41.2795 14.2604L41.2795 15.8905L50.4751 15.8905L50.4751 22.7175C49.7985 22.6505 49.9514 23.4527 50.3319 23.6069C50.3699 23.5309 50.4225 23.461 50.4751 23.394L50.4751 28.251C50.3899 27.8669 50.2901 27.497 49.7971 27.5201C49.704 27.7829 49.5329 27.9679 49.4398 28.2311C49.4488 28.238 49.4579 28.2451 49.4671 28.2523ZM41.2529 1.46346C41.3432 1.5157 41.3895 1.54248 41.5903 1.37467C41.7303 0.690494 40.7357 0.690494 40.8761 1.37467C41.0879 1.36806 41.1834 1.42329 41.2529 1.46346ZM10.1894 1.55242C10.1106 1.71061 10.0333 1.87061 9.83319 1.90826C9.9635 2.07514 10.1572 2.17795 10.368 2.26447C10.0516 3.48332 8.95 1.32472 10.1894 1.55242ZM5.89531 3.50726C5.49744 3.463 5.0997 3.41876 5.19422 3.86487C5.42502 4.20456 5.7736 3.95071 6.07718 3.72961C6.20855 3.63394 6.3315 3.5444 6.43283 3.51175C6.43624 3.51076 6.4396 3.50973 6.44293 3.50866C6.43959 3.50963 6.43622 3.51065 6.43283 3.51175C6.29527 3.55174 6.09528 3.5295 5.89531 3.50726ZM16.0771 4.39918C16.6467 4.30663 16.6318 4.79609 16.617 5.28616C16.6152 5.34621 16.6134 5.40627 16.6126 5.46527L16.0771 5.46527L16.0771 4.39918ZM47.4772 6.71055C47.9441 6.66096 48.2448 6.77499 48.1911 7.2445C47.725 7.2941 47.2982 7.30387 47.4772 6.71055ZM33.5614 12.9355C33.6176 12.3631 33.9607 12.4523 34.3422 12.5516C34.379 12.5612 34.4162 12.5708 34.4536 12.58C34.4271 12.9684 34.0039 12.9612 33.5614 12.9355ZM268.765 14.5164C313.846 14.5164 350.522 51.0784 350.522 96.0192L346.804 96.0192C346.804 53.1215 311.796 18.2225 268.765 18.2225L81.8012 18.2225L81.8012 14.5164L268.765 14.5164ZM40.6978 14.7144C40.2027 14.7542 40.1934 15.278 39.8057 15.425C40.1175 15.779 41.1399 15.1119 40.6978 14.7144ZM38.0218 16.6703C37.9854 16.6152 37.9682 16.4685 37.9512 16.3235C37.9152 16.016 37.8801 15.7163 37.6648 16.3151C37.1064 16.1795 37.5087 15.852 37.8205 15.5982C37.8989 15.5344 37.9715 15.4752 38.0218 15.425C38.2392 15.4122 38.334 15.5216 38.4288 15.6311C38.5545 15.7762 38.6803 15.9213 39.0922 15.7812C38.7957 16.1378 38.6132 16.6084 38.0218 16.6703ZM1.62604 17.5593C2.37103 17.6788 1.70909 18.6638 1.26911 18.0936C1.33212 17.8591 1.58308 17.8138 1.62604 17.5593ZM44.3622 19.6044C44.4061 19.431 44.4437 19.2822 44.2663 19.1605C44.2374 19.2893 44.1572 19.3667 44.0769 19.4441C43.9455 19.5708 43.8141 19.6974 43.9091 20.0499C44.009 20.0542 44.0689 20.0983 44.1287 20.1424C44.2057 20.199 44.2826 20.2557 44.4446 20.228C44.2634 19.9951 44.3162 19.7864 44.3622 19.6044ZM47.4772 20.5835C47.6605 20.1864 48.6719 20.4427 48.548 20.9386C48.32 20.6921 47.7056 20.8307 47.4772 20.5835ZM11.2117 21.166C11.2199 21.5133 11.2281 21.8609 11.6171 21.8288C11.6702 21.64 11.6451 21.4939 11.622 21.3597C11.5808 21.1205 11.5461 20.9195 11.9737 20.5835C11.7388 20.3551 11.316 20.3551 11.0819 20.5835C11.2007 20.7022 11.2062 20.934 11.2117 21.166ZM1.13289 20.9564C0.980831 20.9104 0.828709 20.8642 0.733902 20.7609C0.710363 21.2716 1.11136 21.3594 1.51212 21.4472C1.55022 21.4555 1.58831 21.4638 1.62604 21.4726C1.6497 21.1131 1.39138 21.0348 1.13289 20.9564ZM50.3319 21.8288L50.3319 21.4726C50.2299 21.4963 50.091 21.4836 49.952 21.4708C49.6321 21.4413 49.312 21.4118 49.4398 21.8288L50.3319 21.8288ZM14.9431 22.2095C14.9048 22.2011 14.8666 22.1927 14.8287 22.1839C14.7145 22.8315 15.1975 22.8833 15.7201 22.8956C15.744 22.3857 15.3431 22.2975 14.9431 22.2095ZM33.9187 23.2518C33.8564 22.7794 33.4501 22.6509 33.0262 22.5401C33.0595 23.0404 33.337 23.2978 33.9187 23.2518ZM45.4089 22.9142C44.9395 22.9383 44.4702 22.9625 44.4446 23.4288C45.0269 23.5176 45.2805 23.2788 45.5338 23.0402C45.586 22.9911 45.6382 22.9419 45.6933 22.8956C45.601 22.9043 45.5049 22.9093 45.4089 22.9142ZM30.5285 23.9627C29.7831 23.8437 30.4454 22.8587 30.8854 23.4288C30.8224 23.6627 30.5714 23.709 30.5285 23.9627ZM31.3573 24.0566C31.2935 24.2163 31.2473 24.332 31.4202 24.4963L31.9558 24.4963C31.991 24.1306 31.8308 23.9601 31.6706 23.7896C31.5719 23.6846 31.4732 23.5795 31.4202 23.4288C31.49 23.7242 31.4161 23.9092 31.3573 24.0566ZM42.6604 24.6748C42.684 25.1128 42.6876 25.5302 42.4821 25.7413C42.2179 25.6486 42.0321 25.4788 41.7686 25.3858C41.8019 24.8855 42.079 24.6281 42.6604 24.6748ZM12.8658 25.208C13.0731 25.2366 13.1834 25.1682 13.2227 25.0296C13.4873 25.1812 13.6061 25.4774 13.5793 25.9201C13.0212 26.0019 12.7831 25.7641 12.8658 25.208ZM40.6711 25.546C40.3043 25.665 39.9597 25.7769 40.3409 26.0971C40.3216 25.8578 40.6503 25.7788 40.9491 25.707C41.3102 25.6202 41.6275 25.544 41.2337 25.208C41.1992 25.3746 40.9296 25.4621 40.6711 25.546ZM43.9091 26.6303C43.3308 26.6254 43.5728 26.1341 43.7628 25.7486C43.8354 25.6012 43.9004 25.4692 43.9091 25.3858L45.1585 25.3858C45.0717 25.6409 44.8018 25.7137 44.5319 25.7864C44.1462 25.8903 43.7606 25.9942 43.9091 26.6303ZM36.2303 25.7709C35.9445 25.6238 35.6254 25.4594 35.524 25.7413C35.5474 25.7569 35.5776 25.7793 35.613 25.8055C35.8642 25.9918 36.3766 26.3716 36.5944 25.9201C36.5001 25.9099 36.3692 25.8424 36.2303 25.7709ZM43.0176 26.0971C43.0001 26.1173 42.982 26.1415 42.9646 26.1684C42.503 26.7603 42.1331 26.5163 41.7686 27.1646C42.2426 27.0434 42.6772 26.8841 43.0176 26.6303C42.7787 26.5908 42.8586 26.3316 42.9646 26.1684C42.9821 26.1458 42.9998 26.1221 43.0176 26.0971ZM21.2227 26.6108C21.1492 26.4629 21.0758 26.315 20.716 26.4526C20.8361 26.7771 20.7352 27.0872 20.6478 27.3558C20.5522 27.6497 20.4727 27.8941 20.716 28.0537C20.8571 27.4828 21.3637 27.2765 21.6082 26.8077C21.3514 26.8699 21.287 26.7403 21.2227 26.6108ZM41.4117 27.3424C41.1582 27.3265 40.9065 27.3127 40.8761 27.5201C40.5743 27.3779 40.8553 26.3273 41.4117 26.4526L41.4117 27.3424ZM32.1348 28.5869C32.4402 28.2658 32.8354 28.642 32.8476 29.1209C32.3815 29.1705 32.0804 29.0554 32.1348 28.5869ZM15.7201 30.3654C15.5469 30.3604 15.582 30.1482 15.5422 30.0096C15.515 29.6802 14.9379 29.9014 14.8287 29.6534C14.9211 29.3913 15.0926 29.2056 15.1853 28.9428C15.4558 28.8637 15.569 28.9417 15.6822 29.0197C15.78 29.087 15.8779 29.1544 16.0771 29.1209C15.7975 29.7041 15.8121 29.9046 15.7201 30.3654ZM43.5525 30.0096C43.0824 29.9564 42.9668 30.2561 43.0176 30.7217C43.1001 30.7407 43.166 30.7762 43.2318 30.8118C43.3587 30.8802 43.4856 30.9487 43.7311 30.8994C43.6316 30.6243 43.6426 30.5062 43.6519 30.407C43.6614 30.3048 43.6691 30.2226 43.5525 30.0096ZM2.61134 33.3004C2.61134 33.215 2.58029 33.1297 2.51817 32.856C1.68189 32.7988 2.04096 33.6774 2.51817 33.7447C2.58029 33.471 2.61134 33.3857 2.61134 33.3004ZM1.80396 34.9896C1.75778 34.4108 2.01626 34.1335 2.51817 34.1009C2.52318 34.2736 2.73655 34.2385 2.87474 34.2787C2.8683 34.8644 2.36746 34.9581 1.80396 34.9896Z" id="path_1" />
  </defs>
  <g id="Combined-shape-1635">
    <use stroke="none" fill="#00345D" fill-opacity="0.2" xlink:href="#path_1" fill-rule="evenodd" />
    <use stroke="none" fill="#FFFFFF" fill-opacity="0.2" xlink:href="#path_1" fill-rule="evenodd" />
  </g>
</svg>